# xmcd
#
# Track frame offsets: 
#        150
#        31973
#        43875
#        58446
#        76119
#        91439
#        108088
#        129690
#        148784
#        183115
#        198369
#        211027
#        225676
#        239315
#        255279
#        268980
#        283512
#        297050
#        317785
#        332064
#
# Disc length: 4614 seconds
#
# Revision: 0
# Processed by: cddbd v1.5.2PL0 Copyright (c) Steve Scherf et al.
# Submitted via: ExactAudioCopy v0.99pb5
#
DISCID=24120414
DTITLE=Various Artist - Jazz 'Round Midnight [CD2]
DYEAR=2012
DGENRE=Jazz
TTITLE0=Ella Fitzgerald - Bewitched, Bothered, And Bewildered
TTITLE1=Dizzy Gillespie - Do Nothing Till You Hear From Me
TTITLE2=Shirley Horn - Second Time Around
TTITLE3=Coleman Hawkins - Like Someone In Love
TTITLE4=Count Basie and His Orchestra - After Supper
TTITLE5=Ella Fitzgerald and Louis Armstrong - Moonlight In Vermont
TTITLE6=Gene Kurpa and His Orchestra - Duke Ellington Medley (Mood Indig
TTITLE6=o, Prelude To A Kiss, In A Sentimental Mood, Sophisticated Lad
TTITLE6=y)
TTITLE7=Gene Ammons - My Romance
TTITLE8=Billie Holiday - Fine And Mellow [Live]
TTITLE9=Lester Young - Ghost Of A Chance
TTITLE10=Miles Davis - Ascenseur Pour L'Echafaud [OST]
TTITLE11=Nat King Cole - Stardust
TTITLE12=Erroll Garner's - I Cover The Waterfront
TTITLE13=Ella Fitzgerald and Louis Armstrong - Stars Fell On Alabama
TTITLE14=Duke Ellington - Mood Indigo
TTITLE15=Don Byas - I'm In A Mood For Love
TTITLE16=Sarah Vaughan - Misty
TTITLE17=John Coltrane - Time After Time
TTITLE18=Frank Sinatra - Nevertheless (I'm In Love With You)
TTITLE19=Harry James and His Orchestra - Sleepy Lagoon
EXTD=
EXTT0=
EXTT1=
EXTT2=
EXTT3=
EXTT4=
EXTT5=
EXTT6=
EXTT7=
EXTT8=
EXTT9=
EXTT10=
EXTT11=
EXTT12=
EXTT13=
EXTT14=
EXTT15=
EXTT16=
EXTT17=
EXTT18=
EXTT19=
PLAYORDER=
